<?xml version="1.0" encoding="UTF-8"?><svg id="Layer_1" xmlns="http://www.w3.org/2000/svg" viewBox="0 0 924.5 164.5"><polygon points="0 5.64 0 164.5 160 164.5 160 4.64 79.5 85.14 0 5.64"/><path d="M358.5,124.99c-.17,0-.33,.01-.5,.01-19.76,0-35.77-16.02-35.77-35.77,0-.08,0-.15,0-.23h114.18c.05-1.16,.09-2.33,.09-3.5,0-43.35-35.15-78.5-78.5-78.5s-78.5,35.15-78.5,78.5,35.15,78.5,78.5,78.5c28.95,0,54.22-15.68,67.83-39h-67.33Z"/><path d="M836.06,3.89c-.19,0-.37,.01-.56,.01V163.99c.19,0,.37,.01,.56,.01,48.84,0,88.44-35.84,88.44-80.06S884.91,3.89,836.06,3.89Z"/><polygon points="606.5 43 563.5 0 563.5 160 723.5 160 680.5 117 606.5 117 606.5 43"/></svg>