<?xml version="1.0" encoding="UTF-8"?><svg id="Layer_1" preserveAspectRatio="none" xmlns="http://www.w3.org/2000/svg" viewBox="0 0 320.25 18"><defs><style>.cls-1{fill:#50aa5d;}</style></defs><path class="cls-1" d="M122.12,18h-28.87c-1.39-1.72-3.38-.89-5.06-.9-12.77-.08-25.53-.04-38.3-.05-1.49,0-3,.03-4.46-.16-6.71-.86-13.43-1.44-20.2-1.79-7.39-.38-14.72-1.59-21.67-4.16C.69,9.88-1.26,4.34,.96,2.86,2.49,1.85,3.92-.36,6.37,.05c6.44,1.07,12.75,2.9,19.43,2.28,1.95-.18,3.96,.03,5.93,.18,11.98,.95,23.93,2.45,36.01,1.69,18.66-1.16,37.3,1.65,56.02-.1,10.99-1.03,22.16-.19,33.25-.43,10.74-.23,21.5,.72,32.22-.64,3.6-.46,7.25-.73,10.88-.73,21.13,.02,42.25,.24,63.37,.22,12.24-.01,24.48-.32,36.72-.54,2.18-.04,4.52-.24,6.18,1.13,4.02,3.3,8.89,4.46,13.86,5.5v2.81c-5.14,2.88-10.76,3.75-16.67,3.75-33.5-.04-67,0-100.5,0-1.16,0-2.35-.13-3.48,.05-8.99,1.48-18.06,1.83-27.17,1.82-15.09-.01-30.18-.04-45.27,.04-1.68,0-3.66-.83-5.04,.89Z"/></svg>