<?xml version="1.0" encoding="UTF-8"?><svg id="Layer_1" preserveAspectRatio="none" xmlns="http://www.w3.org/2000/svg" viewBox="0 0 42.03 19.08"><defs><style>.cls-1{fill:#ef3535;}</style></defs><path class="cls-1" d="M41.78,15.37c-1.01-1-.8-3.28-3.02-2.95-1.17,.17-1.54-1.04-2.52-1-1.81-.81-3.45-2.03-5.56-2.11-.11,0-.2-.48-.31-.74-.15-.58,.37-.78,.66-1.11,.93-1.07-.02-1.65-.68-2.22-.81-.7-1.62-.96-1.93,.47h-.98c.04-.95-1.13-1.76-1.32-1.7-1.37,.42-2.37-1.43-3.65-.57-2.16,1.45-2.25-1.8-3.85-1.54-.6,.1-1.29-.31-1.78,.33-.92,1.21-1.16-.2-1.7-.42-.44-.18-.59-1.24-1.36-.41-.65,.7-1.39,.77-1.93-.03-.22-.33-.04-.91-.04-1.38H6.93c0,.15,0,.45,0,.45-2.64,.08-3.62,3-6.1,3.38-1.19,.18-.79,1.22-.69,1.86,.11,.67,.6,1.29,.93,1.93,.31-.21,.62-.41,.93-.61-.17,.4-.38,.7-.93,.61-.16,0-.34-.04-.48,.01-.14,.05-.35,.27-.33,.31,.56,.99,1.28,1.92,1.66,2.97,.15,.43-1.78,1.06,.36,1.55,2.58,.59,4.96,2.45,7.52,2.63,4.5,.31,8.49,2.2,12.76,3.14,1.65,.37,3.25,.78,4.95,.8,1.61,.02,3.22,0,4.83,0,.97,0,1.95-.07,2.91,.01,2.59,.24,4.5-.95,6.14-2.69,.21-.22,1.06-.33,.38-1Z"/></svg>